<svg width="121" height="131" viewBox="0 0 121 131" fill="none" xmlns="http://www.w3.org/2000/svg">
<path d="M60.5184 122.809C89.5095 122.809 113.011 99.6651 113.011 71.1155C113.011 42.566 89.5095 19.422 60.5184 19.422C31.5273 19.422 8.02539 42.566 8.02539 71.1155C8.02539 99.6651 31.5273 122.809 60.5184 122.809Z" fill="#A25430" stroke="black" stroke-width="6.02708" stroke-linejoin="round"/>
<g opacity="0.136364" filter="url(#filter0_f_235_611)">
<path d="M60.3314 125.907C90.8532 125.907 115.596 102.709 115.596 74.0921C115.596 45.4755 90.8532 22.2772 60.3314 22.2772C29.8096 22.2772 5.06671 45.4755 5.06671 74.0921C5.06671 102.709 29.8096 125.907 60.3314 125.907Z" fill="black"/>
<path d="M60.3314 125.907C90.8532 125.907 115.596 102.709 115.596 74.0921C115.596 45.4755 90.8532 22.2772 60.3314 22.2772C29.8096 22.2772 5.06671 45.4755 5.06671 74.0921C5.06671 102.709 29.8096 125.907 60.3314 125.907Z" stroke="black" stroke-width="6.19142" stroke-linejoin="round"/>
</g>
<path opacity="0.969697" d="M59.8041 113.162C83.5188 113.162 102.743 93.9838 102.743 70.3257C102.743 46.6676 83.5188 27.4889 59.8041 27.4889C36.0894 27.4889 16.8648 46.6676 16.8648 70.3257C16.8648 93.9838 36.0894 113.162 59.8041 113.162Z" fill="#5A5223" stroke="black" stroke-width="6.85267" stroke-linejoin="round"/>
<path d="M64.5801 10.0336H55.0762V18.4547H64.5801V10.0336Z" fill="#A25430" stroke="black" stroke-width="2.46252" stroke-linejoin="round"/>
<path d="M106.422 33.3036L99.6815 26.0408L94.0179 30.4508L100.758 37.7137L106.422 33.3036Z" fill="#A35430" stroke="black" stroke-width="2.52409" stroke-linejoin="round"/>
<path d="M20.5446 25.1698L14.8509 31.7289L20.4406 37.0079L26.1342 30.4487L20.5446 25.1698Z" fill="#A25430" stroke="black" stroke-width="2.57438" stroke-linejoin="round"/>
<path d="M73.802 0.842438H46.3829V9.22707H73.802V0.842438Z" fill="#A25430" stroke="black" stroke-width="2.95045" stroke-linejoin="round"/>
<path d="M18.5044 17.2185L5.68829 31.7401L10.5688 35.495L23.3849 20.9734L18.5044 17.2185Z" fill="#A25430" stroke="black" stroke-width="2.53328" stroke-linejoin="round"/>
<path d="M114.705 32.5522L101.47 18.0744L97.1311 22.514L110.367 36.9917L114.705 32.5522Z" fill="#A35430" stroke="black" stroke-width="2.5639" stroke-linejoin="round"/>
<path d="M60.1294 28.1255C60.1294 30.855 60.1294 33.5843 60.1294 36.3131" stroke="black" stroke-width="7.03687" stroke-linejoin="round"/>
<path d="M90.3708 41.1546C88.5041 42.6432 86.6374 44.1319 84.7706 45.6206" stroke="black" stroke-width="7.03687" stroke-linejoin="round"/>
<path d="M101.571 70.1798C99.3315 70.3039 97.0914 70.4279 94.851 70.552" stroke="black" stroke-width="7.03687" stroke-linejoin="round"/>
<path d="M88.8775 98.839C87.0112 97.2266 85.1444 95.6138 83.2773 94.0008" stroke="black" stroke-width="7.03687" stroke-linejoin="round"/>
<path d="M60.1294 111.491C60.1294 108.762 60.1294 106.033 60.1294 103.304" stroke="black" stroke-width="7.03687" stroke-linejoin="round"/>
<path d="M30.2617 99.9559C32.004 98.4672 33.7463 96.9785 35.4886 95.4899" stroke="black" stroke-width="7.03687" stroke-linejoin="round"/>
<path d="M17.1945 70.1798C19.8084 70.552 22.4218 70.9242 25.0349 71.2963" stroke="black" stroke-width="7.03687" stroke-linejoin="round"/>
<path d="M30.2617 40.7786C32.0043 42.5158 33.7466 44.2525 35.4886 45.989" stroke="black" stroke-width="7.03687" stroke-linejoin="round"/>
<path d="M59.9431 76.8811C63.1391 76.8811 65.73 74.1318 65.73 70.7404C65.73 67.3489 63.1391 64.5996 59.9431 64.5996C56.7471 64.5996 54.1562 67.3489 54.1562 70.7404C54.1562 74.1318 56.7471 76.8811 59.9431 76.8811Z" fill="#A25430" stroke="black" stroke-width="7.03687" stroke-linejoin="round"/>
<path d="M60.1294 48.9684C60.1294 53.6828 60.1294 58.3969 60.1294 63.1107" stroke="black" stroke-width="7.03687" stroke-linejoin="round"/>
<path d="M64.6099 75.0192C69.5882 79.7337 74.5662 84.4478 79.5439 89.1616" stroke="black" stroke-width="7.03687" stroke-linejoin="round"/>
<defs>
<filter id="filter0_f_235_611" x="-6.62874" y="10.5818" width="133.92" height="127.021" filterUnits="userSpaceOnUse" color-interpolation-filters="sRGB">
<feFlood flood-opacity="0" result="BackgroundImageFix"/>
<feBlend mode="normal" in="SourceGraphic" in2="BackgroundImageFix" result="shape"/>
<feGaussianBlur stdDeviation="4.29987" result="effect1_foregroundBlur_235_611"/>
</filter>
</defs>
</svg>
